<svg xmlns="http://www.w3.org/2000/svg" width="1364pt" height="625pt" viewBox="0 0 1364.3 625"><g class="graph" transform="translate(4 621)"><path fill="#fff" d="M-4 4v-625h1364.3V4H-4z"/><g class="node"><ellipse cx="615.3" cy="-561" fill="none" stroke="#000" rx="27" ry="18"/></g><g class="edge"><path fill="none" stroke="#000" d="M615.3-615.85v25.86"/><path stroke="#000" d="m618.8-590.35-3.5 10-3.5-10h7z"/></g><g class="node"><ellipse cx="204.3" cy="-474" fill="none" stroke="#000" rx="27" ry="18"/></g><g class="edge"><path fill="none" stroke="#000" d="M589.59-554.68c-70.5 14.58-267.03 55.22-348.84 72.14"/><path stroke="#000" d="m241.5-478.91-10.5-1.41 9.08-5.45 1.42 6.86z"/><text x="439.3" y="-513.8" font-family="Times,serif" font-size="14" text-anchor="middle">S</text></g><g class="node"><ellipse cx="615.3" cy="-474" fill="none" stroke="#000" rx="27" ry="18"/></g><g class="edge"><path fill="none" stroke="#000" d="M615.3-542.8v39.51"/><path stroke="#000" d="m618.8-503.47-3.5 10-3.5-10h7z"/><text x="619.8" y="-513.8" font-family="Times,serif" font-size="14" text-anchor="middle">T</text></g><g class="node"><ellipse cx="1071.3" cy="-474" fill="none" stroke="#000" rx="27" ry="18"/></g><g class="edge"><path fill="none" stroke="#000" d="M641.12-555.19c76.88 14.33 304.45 56.75 393.69 73.39"/><path stroke="#000" d="m1035.29-485.09 9.19 5.28-10.48 1.6 1.29-6.88z"/><text x="875.8" y="-513.8" font-family="Times,serif" font-size="14" text-anchor="middle">L</text></g><g class="node"><ellipse cx="144.3" cy="-387" fill="none" stroke="#000" rx="27" ry="18"/></g><g class="edge"><path fill="none" stroke="#000" d="M193.29-457.41c-8.82 12.5-21.37 30.28-31.56 44.72"/><path stroke="#000" d="m164.06-410.93-8.62 6.15 2.9-10.19 5.72 4.04z"/><text x="182.8" y="-426.8" font-family="Times,serif" font-size="14" text-anchor="middle">T</text></g><g class="node"><ellipse cx="262.3" cy="-387" fill="none" stroke="#000" rx="27" ry="18"/></g><g class="edge"><path fill="none" stroke="#000" d="M214.94-457.41c8.53 12.5 20.66 30.28 30.51 44.72"/><path stroke="#000" d="m248.79-415.01 2.74 10.23-8.53-6.29 5.79-3.94z"/><text x="241.8" y="-426.8" font-family="Times,serif" font-size="14" text-anchor="middle">L</text></g><g class="node"><ellipse cx="27.3" cy="-333" fill="none" stroke="#000" rx="27.1" ry="18"/><text x="27.3" y="-329.3" font-family="Times,serif" font-size="14" text-anchor="middle">push</text></g><g class="edge"><path fill="none" stroke="#000" d="M185.48-460.52c-19.66 13.24-51.21 35.03-77.18 55.52-20.25 15.98-42.2 35.35-58.14 49.83"/><path stroke="#000" d="m53.16-353.26-9.74 4.16 5.02-9.33 4.72 5.17z"/><text x="157.3" y="-426.8" font-family="Times,serif" font-size="14" text-anchor="middle">S</text></g><g class="node"><ellipse cx="71.3" cy="-279" fill="none" stroke="#000" rx="27.9" ry="18"/><text x="71.3" y="-275.3" font-family="Times,serif" font-size="14" text-anchor="middle">copy</text></g><g class="edge"><path fill="none" stroke="#000" d="M133.53-370.36c-11.92 17.3-31.28 45.41-45.24 65.69"/><path stroke="#000" d="m90.67-302.96-8.56 6.26 2.79-10.23 5.77 3.97z"/><text x="123.3" y="-329.3" font-family="Times,serif" font-size="14" text-anchor="middle">S</text></g><g class="node"><ellipse cx="144.3" cy="-279" fill="none" stroke="#000" rx="27.1" ry="18"/><text x="144.3" y="-275.3" font-family="Times,serif" font-size="14" text-anchor="middle">slide</text></g><g class="edge"><path fill="none" stroke="#000" d="M144.3-368.97v60.73"/><path stroke="#000" d="m147.8-308.34-3.5 10-3.5-10h7z"/><text x="148.8" y="-329.3" font-family="Times,serif" font-size="14" text-anchor="middle">L</text></g><g class="node"><ellipse cx="216.3" cy="-279" fill="none" stroke="#000" rx="27" ry="18"/><text x="216.3" y="-275.3" font-family="Times,serif" font-size="14" text-anchor="middle">dup</text></g><g class="edge"><path fill="none" stroke="#000" d="M255.11-369.44c-7.28 16.78-18.66 43.01-27.22 62.73"/><path stroke="#000" d="m230.78-305.58-7.19 7.78.77-10.56 6.42 2.78z"/><text x="250.3" y="-329.3" font-family="Times,serif" font-size="14" text-anchor="middle">S</text></g><g class="node"><ellipse cx="290.3" cy="-279" fill="none" stroke="#000" rx="28.7" ry="18"/><text x="290.3" y="-275.3" font-family="Times,serif" font-size="14" text-anchor="middle">swap</text></g><g class="edge"><path fill="none" stroke="#000" d="M266.8-368.97c4.38 16.61 11.13 42.15 16.27 61.61"/><path stroke="#000" d="m286.64-308.55-.83 10.56-5.94-8.77 6.77-1.79z"/><text x="285.8" y="-329.3" font-family="Times,serif" font-size="14" text-anchor="middle">T</text></g><g class="node"><ellipse cx="364.3" cy="-279" fill="none" stroke="#000" rx="27" ry="18"/><text x="364.3" y="-275.3" font-family="Times,serif" font-size="14" text-anchor="middle">drop</text></g><g class="edge"><path fill="none" stroke="#000" d="M276.48-371.26c17.2 17.88 46.38 48.19 66.34 68.94"/><path stroke="#000" d="m344.82-305.25 4.42 9.64-9.46-4.78 5.04-4.86z"/><text x="333.8" y="-329.3" font-family="Times,serif" font-size="14" text-anchor="middle">L</text></g><g class="node"><ellipse cx="508.3" cy="-387" fill="none" stroke="#000" rx="27" ry="18"/></g><g class="edge"><path fill="none" stroke="#000" d="M598.58-459.72c-17.41 13.83-44.89 35.66-64.96 51.6"/><path stroke="#000" d="m536.26-404.95-10.01 3.48 5.66-8.96 4.35 5.48z"/><text x="572.3" y="-426.8" font-family="Times,serif" font-size="14" text-anchor="middle">S</text></g><g class="node"><ellipse cx="615.3" cy="-387" fill="none" stroke="#000" rx="27" ry="18"/></g><g class="edge"><path fill="none" stroke="#000" d="M615.3-455.8v39.51"/><path stroke="#000" d="m618.8-416.47-3.5 10-3.5-10h7z"/><text x="619.8" y="-426.8" font-family="Times,serif" font-size="14" text-anchor="middle">T</text></g><g class="node"><ellipse cx="748.3" cy="-387" fill="none" stroke="#000" rx="27" ry="18"/></g><g class="edge"><path fill="none" stroke="#000" d="M634.35-460.82c22.42 14.33 59.85 38.25 85.66 54.74"/><path stroke="#000" d="m721.74-408.49 6.54 8.33-10.31-2.43 3.77-5.9z"/><text x="694.8" y="-426.8" font-family="Times,serif" font-size="14" text-anchor="middle">L</text></g><g class="node"><ellipse cx="436.3" cy="-279" fill="none" stroke="#000" rx="27" ry="18"/></g><g class="edge"><path fill="none" stroke="#000" d="M497.67-370.36c-11.75 17.3-30.84 45.41-44.61 65.69"/><path stroke="#000" d="m455.48-303.01-8.51 6.31 2.72-10.24 5.79 3.93z"/><text x="487.3" y="-329.3" font-family="Times,serif" font-size="14" text-anchor="middle">S</text></g><g class="node"><ellipse cx="508.3" cy="-279" fill="none" stroke="#000" rx="27" ry="18"/></g><g class="edge"><path fill="none" stroke="#000" d="M508.3-368.97v60.73"/><path stroke="#000" d="m511.8-308.34-3.5 10-3.5-10h7z"/><text x="512.8" y="-329.3" font-family="Times,serif" font-size="14" text-anchor="middle">T</text></g><g class="node"><ellipse cx="292.3" cy="-192" fill="none" stroke="#000" rx="27" ry="18"/><text x="292.3" y="-188.3" font-family="Times,serif" font-size="14" text-anchor="middle">add</text></g><g class="edge"><path fill="none" stroke="#000" d="M416.58-266.36c-24.67 14.56-67.1 39.61-95.42 56.32"/><path stroke="#000" d="m323.17-206.57-10.39 2.07 6.83-8.1 3.56 6.03z"/><text x="377.3" y="-231.8" font-family="Times,serif" font-size="14" text-anchor="middle">S</text></g><g class="node"><ellipse cx="364.3" cy="-192" fill="none" stroke="#000" rx="27" ry="18"/><text x="364.3" y="-188.3" font-family="Times,serif" font-size="14" text-anchor="middle">sub</text></g><g class="edge"><path fill="none" stroke="#000" d="M423.43-262.8c-10.96 12.93-26.87 31.71-39.43 46.54"/><path stroke="#000" d="m386.19-214.43-9.13 5.37 3.79-9.9 5.34 4.53z"/><text x="409.8" y="-231.8" font-family="Times,serif" font-size="14" text-anchor="middle">T</text></g><g class="node"><ellipse cx="436.3" cy="-192" fill="none" stroke="#000" rx="27" ry="18"/><text x="436.3" y="-188.3" font-family="Times,serif" font-size="14" text-anchor="middle">mul</text></g><g class="edge"><path fill="none" stroke="#000" d="M436.3-260.8v39.51"/><path stroke="#000" d="m439.8-221.47-3.5 10-3.5-10h7z"/><text x="440.8" y="-231.8" font-family="Times,serif" font-size="14" text-anchor="middle">L</text></g><g class="node"><ellipse cx="508.3" cy="-192" fill="none" stroke="#000" rx="27" ry="18"/><text x="508.3" y="-188.3" font-family="Times,serif" font-size="14" text-anchor="middle">div</text></g><g class="edge"><path fill="none" stroke="#000" d="M508.3-260.8v39.51"/><path stroke="#000" d="m511.8-221.47-3.5 10-3.5-10h7z"/><text x="512.3" y="-231.8" font-family="Times,serif" font-size="14" text-anchor="middle">S</text></g><g class="node"><ellipse cx="580.3" cy="-192" fill="none" stroke="#000" rx="27" ry="18"/><text x="580.3" y="-188.3" font-family="Times,serif" font-size="14" text-anchor="middle">mod</text></g><g class="edge"><path fill="none" stroke="#000" d="M521.17-262.8c10.96 12.93 26.87 31.71 39.42 46.54"/><path stroke="#000" d="m563.74-218.96 3.8 9.9-9.14-5.37 5.34-4.53z"/><text x="553.8" y="-231.8" font-family="Times,serif" font-size="14" text-anchor="middle">T</text></g><g class="node"><ellipse cx="581.3" cy="-279" fill="none" stroke="#000" rx="27.9" ry="18"/><text x="581.3" y="-275.3" font-family="Times,serif" font-size="14" text-anchor="middle">store</text></g><g class="edge"><path fill="none" stroke="#000" d="M609.83-368.97c-5.32 16.61-13.52 42.15-19.76 61.61"/><path stroke="#000" d="m593.13-306.44-6.38 8.45-.28-10.59 6.66 2.14z"/><text x="608.3" y="-329.3" font-family="Times,serif" font-size="14" text-anchor="middle">S</text></g><g class="node"><ellipse cx="665.3" cy="-279" fill="none" stroke="#000" rx="37.89" ry="18"/><text x="665.3" y="-275.3" font-family="Times,serif" font-size="14" text-anchor="middle">retrieve</text></g><g class="edge"><path fill="none" stroke="#000" d="M623.11-369.44c7.92 16.78 20.29 43.01 29.59 62.73"/><path stroke="#000" d="m656.27-308.33 1.1 10.53-7.43-7.55 6.33-2.98z"/><text x="652.8" y="-329.3" font-family="Times,serif" font-size="14" text-anchor="middle">T</text></g><g class="node"><ellipse cx="748.3" cy="-279" fill="none" stroke="#000" rx="27" ry="18"/></g><g class="edge"><path fill="none" stroke="#000" d="M748.3-368.97v60.73"/><path stroke="#000" d="m751.8-308.34-3.5 10-3.5-10h7z"/><text x="752.3" y="-329.3" font-family="Times,serif" font-size="14" text-anchor="middle">S</text></g><g class="node"><ellipse cx="823.3" cy="-279" fill="none" stroke="#000" rx="27" ry="18"/></g><g class="edge"><path fill="none" stroke="#000" d="M759.36-370.36c12.25 17.3 32.13 45.41 46.48 65.69"/><path stroke="#000" d="m809.27-306.89 2.92 10.19-8.64-6.15 5.72-4.04z"/><text x="801.8" y="-329.3" font-family="Times,serif" font-size="14" text-anchor="middle">T</text></g><g class="node"><ellipse cx="667.3" cy="-192" fill="none" stroke="#000" rx="31.4" ry="18"/><text x="667.3" y="-188.3" font-family="Times,serif" font-size="14" text-anchor="middle">printc</text></g><g class="edge"><path fill="none" stroke="#000" d="M734.19-263.19c-12.39 13-30.62 32.13-44.92 47.13"/><path stroke="#000" d="m692.22-214.03-9.43 4.82 4.37-9.65 5.06 4.83z"/><text x="717.3" y="-231.8" font-family="Times,serif" font-size="14" text-anchor="middle">S</text></g><g class="node"><ellipse cx="746.3" cy="-192" fill="none" stroke="#000" rx="29.8" ry="18"/><text x="746.3" y="-188.3" font-family="Times,serif" font-size="14" text-anchor="middle">printi</text></g><g class="edge"><path fill="none" stroke="#000" d="M747.89-260.8c-.26 11.33-.62 26.44-.93 39.51"/><path stroke="#000" d="m750.44-221.38-3.73 9.91-3.27-10.08 7 .17z"/><text x="752.8" y="-231.8" font-family="Times,serif" font-size="14" text-anchor="middle">T</text></g><g class="node"><ellipse cx="824.3" cy="-192" fill="none" stroke="#000" rx="29.8" ry="18"/><text x="824.3" y="-188.3" font-family="Times,serif" font-size="14" text-anchor="middle">readc</text></g><g class="edge"><path fill="none" stroke="#000" d="M823.5-260.8c.13 11.33.31 26.44.46 39.51"/><path stroke="#000" d="m827.47-221.51-3.38 10.04-3.62-9.96 7-.08z"/><text x="828.3" y="-231.8" font-family="Times,serif" font-size="14" text-anchor="middle">S</text></g><g class="node"><ellipse cx="900.3" cy="-192" fill="none" stroke="#000" rx="28.7" ry="18"/><text x="900.3" y="-188.3" font-family="Times,serif" font-size="14" text-anchor="middle">readi</text></g><g class="edge"><path fill="none" stroke="#000" d="M836.71-263.19c11.78 13 29.11 32.13 42.7 47.13"/><path stroke="#000" d="m881.4-218.97 4.12 9.76-9.31-5.06 5.19-4.7z"/><text x="871.8" y="-231.8" font-family="Times,serif" font-size="14" text-anchor="middle">T</text></g><g class="node"><ellipse cx="1018.3" cy="-387" fill="none" stroke="#000" rx="27" ry="18"/></g><g class="edge"><path fill="none" stroke="#000" d="M1061.33-457.01c-7.65 12.27-18.36 29.44-27.18 43.59"/><path stroke="#000" d="m1036.66-411.84-8.26 6.63 2.32-10.33 5.94 3.7z"/><text x="1052.3" y="-426.8" font-family="Times,serif" font-size="14" text-anchor="middle">S</text></g><g class="node"><ellipse cx="1126.3" cy="-387" fill="none" stroke="#000" rx="27" ry="18"/></g><g class="edge"><path fill="none" stroke="#000" d="M1081.64-457.01c7.99 12.35 19.2 29.66 28.39 43.86"/><path stroke="#000" d="m1113.5-415.21 2.5 10.29-8.37-6.49 5.87-3.8z"/><text x="1106.8" y="-426.8" font-family="Times,serif" font-size="14" text-anchor="middle">T</text></g><g class="node"><ellipse cx="1270.3" cy="-387" fill="none" stroke="#000" rx="27" ry="18"/></g><g class="edge"><path fill="none" stroke="#000" d="M1093.74-463.41c35.25 15.05 103.76 44.31 144.29 61.63"/><path stroke="#000" d="m1239.12-404.7 7.82 7.15-10.57-.71 2.75-6.44z"/><text x="1187.8" y="-426.8" font-family="Times,serif" font-size="14" text-anchor="middle">L</text></g><g class="node"><ellipse cx="896.3" cy="-279" fill="none" stroke="#000" rx="27.9" ry="18"/><text x="896.3" y="-275.3" font-family="Times,serif" font-size="14" text-anchor="middle">label</text></g><g class="edge"><path fill="none" stroke="#000" d="M1001.4-372.56c-7.99 6.43-17.62 14.3-26.1 21.56-18.92 16.18-39.85 35.04-55.42 49.26"/><path stroke="#000" d="m922.57-299.55-9.73 4.18 5-9.34 4.73 5.16z"/><text x="979.3" y="-329.3" font-family="Times,serif" font-size="14" text-anchor="middle">S</text></g><g class="node"><ellipse cx="969.3" cy="-279" fill="none" stroke="#000" rx="27" ry="18"/><text x="969.3" y="-275.3" font-family="Times,serif" font-size="14" text-anchor="middle">call</text></g><g class="edge"><path fill="none" stroke="#000" d="M1010.64-369.44c-7.8 16.88-20.02 43.32-29.16 63.08"/><path stroke="#000" d="m984.27-305.05-7.37 7.6 1.02-10.54 6.35 2.94z"/><text x="1005.8" y="-329.3" font-family="Times,serif" font-size="14" text-anchor="middle">T</text></g><g class="node"><ellipse cx="1041.3" cy="-279" fill="none" stroke="#000" rx="27" ry="18"/><text x="1041.3" y="-275.3" font-family="Times,serif" font-size="14" text-anchor="middle">jmp</text></g><g class="edge"><path fill="none" stroke="#000" d="M1021.99-368.97c3.59 16.54 9.1 41.92 13.31 61.34"/><path stroke="#000" d="m1038.91-308.5-1.3 10.51-5.54-9.03 6.84-1.48z"/><text x="1037.8" y="-329.3" font-family="Times,serif" font-size="14" text-anchor="middle">L</text></g><g class="node"><ellipse cx="1113.3" cy="-279" fill="none" stroke="#000" rx="27" ry="18"/><text x="1113.3" y="-275.3" font-family="Times,serif" font-size="14" text-anchor="middle">jz</text></g><g class="edge"><path fill="none" stroke="#000" d="M1124.21-368.97c-2.01 16.36-5.08 41.38-7.45 60.73"/><path stroke="#000" d="m1120.12-307.84-4.7 9.5-2.25-10.35 6.95.85z"/><text x="1126.3" y="-329.3" font-family="Times,serif" font-size="14" text-anchor="middle">S</text></g><g class="node"><ellipse cx="1185.3" cy="-279" fill="none" stroke="#000" rx="27" ry="18"/><text x="1185.3" y="-275.3" font-family="Times,serif" font-size="14" text-anchor="middle">jn</text></g><g class="edge"><path fill="none" stroke="#000" d="M1135.26-369.9c9.48 17.04 24.6 44.19 35.73 64.2"/><path stroke="#000" d="m1174.45-307.69 1.8 10.44-7.92-7.04 6.12-3.4z"/><text x="1169.8" y="-329.3" font-family="Times,serif" font-size="14" text-anchor="middle">T</text></g><g class="node"><ellipse cx="1257.3" cy="-279" fill="none" stroke="#000" rx="27" ry="18"/><text x="1257.3" y="-275.3" font-family="Times,serif" font-size="14" text-anchor="middle">ret</text></g><g class="edge"><path fill="none" stroke="#000" d="M1145.52-373.98c10.01 6.48 22.31 14.82 32.78 22.98 19.75 15.4 40.79 34.45 56.18 48.94"/><path stroke="#000" d="m1236.57-304.96 4.84 9.43-9.66-4.35 4.82-5.08z"/><text x="1224.8" y="-329.3" font-family="Times,serif" font-size="14" text-anchor="middle">L</text></g><g class="node"><ellipse cx="1329.3" cy="-279" fill="none" stroke="#000" rx="27" ry="18"/><text x="1329.3" y="-275.3" font-family="Times,serif" font-size="14" text-anchor="middle">end</text></g><g class="edge"><path fill="none" stroke="#000" d="M1279.26-369.9c9.48 17.04 24.6 44.19 35.73 64.2"/><path stroke="#000" d="m1318.45-307.69 1.8 10.44-7.92-7.04 6.12-3.4z"/><text x="1312.8" y="-329.3" font-family="Times,serif" font-size="14" text-anchor="middle">L</text></g><g class="node"><ellipse cx="71.3" cy="-192" fill="none" stroke="#000" rx="27" ry="18"/></g><g class="edge"><path fill="none" stroke="#000" d="M27.1-314.7c.27 14.62 1.74 35.94 7.2 53.7 4.64 15.1 12.82 30.68 20.32 43.1"/><path stroke="#000" d="m58.05-220.01 2.34 10.33-8.27-6.61 5.93-3.72z"/></g><g class="edge"><path fill="none" stroke="#000" d="M71.3-260.8v39.51"/><path stroke="#000" d="m74.8-221.47-3.5 10-3.5-10h7z"/></g><g class="edge"><path fill="none" stroke="#000" d="M131.25-262.8c-11.11 12.93-27.24 31.71-39.97 46.54"/><path stroke="#000" d="m93.41-214.37-9.17 5.31 3.86-9.87 5.31 4.56z"/></g><g class="node"><ellipse cx="1041.3" cy="-192" fill="none" stroke="#000" rx="27" ry="18"/></g><g class="edge"><path fill="none" stroke="#000" d="M916.46-266.18c24.92 14.61 67.5 39.57 95.91 56.22"/><path stroke="#000" d="m1013.91-212.52 6.86 8.07-10.4-2.03 3.54-6.04z"/></g><g class="edge"><path fill="none" stroke="#000" d="M982.17-262.8c10.96 12.93 26.87 31.71 39.42 46.54"/><path stroke="#000" d="m1024.74-218.96 3.8 9.9-9.14-5.37 5.34-4.53z"/></g><g class="edge"><path fill="none" stroke="#000" d="M1041.3-260.8v39.51"/><path stroke="#000" d="m1044.8-221.47-3.5 10-3.5-10h7z"/></g><g class="edge"><path fill="none" stroke="#000" d="M1100.43-262.8c-10.96 12.93-26.87 31.71-39.43 46.54"/><path stroke="#000" d="m1063.19-214.43-9.13 5.37 3.79-9.9 5.34 4.53z"/></g><g class="edge"><path fill="none" stroke="#000" d="M1165.58-266.36c-24.67 14.56-67.1 39.61-95.42 56.32"/><path stroke="#000" d="m1072.17-206.57-10.39 2.07 6.83-8.1 3.56 6.03z"/></g><g class="node"><ellipse cx="72.3" cy="-105" fill="none" stroke="#000" rx="27" ry="18"/></g><g class="edge"><path fill="none" stroke="#000" d="M63.17-174.46c-3.79 9.69-7.04 22.19-4.87 33.46.53 2.76 1.27 5.57 2.15 8.35"/><path stroke="#000" d="m64.08-133.94.19 10.6-6.76-8.16 6.57-2.44z"/><text x="62.3" y="-144.8" font-family="Times,serif" font-size="14" text-anchor="middle">S</text></g><g class="edge"><path fill="none" stroke="#000" d="M71.5-173.8c.13 11.33.31 26.44.46 39.51"/><path stroke="#000" d="m75.47-134.51-3.38 10.04-3.62-9.96 7-.08z"/><text x="76.8" y="-144.8" font-family="Times,serif" font-size="14" text-anchor="middle">T</text></g><g class="edge"><path fill="none" stroke="#000" d="M1068.09-196.07c9.99-.13 18.21 1.22 18.21 4.07 0 1.69-2.9 2.85-7.34 3.49"/><path stroke="#000" d="m1079.26-184.96-10.17-2.97 9.8-4.02.37 6.99z"/><text x="1090.3" y="-188.3" font-family="Times,serif" font-size="14" text-anchor="middle">S</text></g><g class="edge"><path fill="none" stroke="#000" d="M1066.53-199.19c18.81-2.51 37.77-.12 37.77 7.19 0 5.88-12.28 8.58-26.88 8.1"/><path stroke="#000" d="m1077.2-180.49-9.67-4.32 10.25-2.65-.58 6.97z"/><text x="1108.8" y="-188.3" font-family="Times,serif" font-size="14" text-anchor="middle">T</text></g><g class="node"><ellipse cx="1041.3" cy="-105" fill="none" stroke="#000" rx="41.69" ry="18"/><text x="1041.3" y="-101.3" font-family="Times,serif" font-size="14" text-anchor="middle">label arg</text></g><g class="edge"><path fill="none" stroke="#000" d="M1041.3-173.8v39.51"/><path stroke="#000" d="m1044.8-134.47-3.5 10-3.5-10h7z"/><text x="1045.8" y="-144.8" font-family="Times,serif" font-size="14" text-anchor="middle">L</text></g><g class="edge"><path fill="none" stroke="#000" d="M99.09-109.07c9.99-.13 18.21 1.22 18.21 4.07 0 1.69-2.9 2.85-7.34 3.49"/><path stroke="#000" d="m110.26-97.96-10.17-2.97 9.8-4.02.37 6.99z"/><text x="121.3" y="-101.3" font-family="Times,serif" font-size="14" text-anchor="middle">S</text></g><g class="edge"><path fill="none" stroke="#000" d="M97.53-112.19c18.81-2.51 37.77-.12 37.77 7.19 0 5.88-12.28 8.58-26.88 8.1"/><path stroke="#000" d="m108.2-93.49-9.67-4.32 10.25-2.65-.58 6.97z"/><text x="139.8" y="-101.3" font-family="Times,serif" font-size="14" text-anchor="middle">T</text></g><g class="node"><ellipse cx="72.3" cy="-18" fill="none" stroke="#000" rx="51.99" ry="18"/><text x="72.3" y="-14.3" font-family="Times,serif" font-size="14" text-anchor="middle">number arg</text></g><g class="edge"><path fill="none" stroke="#000" d="M72.3-86.8v39.51"/><path stroke="#000" d="m75.8-47.47-3.5 10-3.5-10h7z"/><text x="76.8" y="-57.8" font-family="Times,serif" font-size="14" text-anchor="middle">L</text></g></g></svg>