<svg xmlns="http://www.w3.org/2000/svg" width="1820" height="430pt" viewBox="0 0 1365.45 430"><g class="graph" transform="translate(4 426)"><path fill="#fff" d="M-4 4v-430h1365.45V4H-4z"/><g class="node"><ellipse cx="599.45" cy="-366" fill="none" stroke="#000" rx="27" ry="18"/></g><g class="edge"><path fill="none" stroke="#000" d="M599.45-420.85v25.86"/><path stroke="#000" d="m602.95-395.35-3.5 10-3.5-10h7z"/></g><g class="node"><ellipse cx="188.45" cy="-279" fill="none" stroke="#000" rx="27" ry="18"/></g><g class="edge"><path fill="none" stroke="#000" d="M573.74-359.68c-70.5 14.58-267.03 55.22-348.84 72.14"/><path stroke="#000" d="m225.65-283.91-10.5-1.41 9.08-5.45 1.42 6.86z"/><text x="423.45" y="-318.8" font-family="Times,serif" font-size="14" text-anchor="middle">S</text></g><g class="node"><ellipse cx="599.45" cy="-279" fill="none" stroke="#000" rx="27" ry="18"/></g><g class="edge"><path fill="none" stroke="#000" d="M599.45-347.8v39.51"/><path stroke="#000" d="m602.95-308.47-3.5 10-3.5-10h7z"/><text x="603.95" y="-318.8" font-family="Times,serif" font-size="14" text-anchor="middle">T</text></g><g class="node"><ellipse cx="1071.45" cy="-279" fill="none" stroke="#000" rx="27" ry="18"/></g><g class="edge"><path fill="none" stroke="#000" d="M625.5-360.31c79.21 14.27 317.42 57.16 409.27 73.71"/><path stroke="#000" d="m1035.26-289.89 9.22 5.21-10.46 1.68 1.24-6.89z"/><text x="868.95" y="-318.8" font-family="Times,serif" font-size="14" text-anchor="middle">L</text></g><g class="node"><ellipse cx="142.45" cy="-192" fill="none" stroke="#000" rx="27" ry="18"/></g><g class="edge"><path fill="none" stroke="#000" d="M179.58-261.61c-6.56 12.11-15.61 28.84-23.14 42.75"/><path stroke="#000" d="m159.13-217.47-7.84 7.13 1.68-10.46 6.16 3.33z"/><text x="172.95" y="-231.8" font-family="Times,serif" font-size="14" text-anchor="middle">T</text></g><g class="node"><ellipse cx="254.45" cy="-192" fill="none" stroke="#000" rx="27" ry="18"/></g><g class="edge"><path fill="none" stroke="#000" d="M200.55-262.41c9.86 12.7 23.96 30.85 35.26 45.4"/><path stroke="#000" d="m239.05-219.54 3.37 10.05-8.9-5.75 5.53-4.3z"/><text x="229.95" y="-231.8" font-family="Times,serif" font-size="14" text-anchor="middle">L</text></g><g class="node"><ellipse cx="63.45" cy="-192" fill="none" stroke="#000" rx="34.39" ry="18"/><text x="63.45" y="-188.3" font-family="Times,serif" font-size="14" text-anchor="middle">push n</text></g><g class="edge"><path fill="none" stroke="#000" d="M170-265.46c-20.38 13.86-53.49 36.37-77.39 52.63"/><path stroke="#000" d="m94.86-209.45-10.23 2.73 6.3-8.52 3.93 5.79z"/><text x="137.45" y="-231.8" font-family="Times,serif" font-size="14" text-anchor="middle">S</text></g><g class="node"><ellipse cx="34.45" cy="-105" fill="none" stroke="#000" rx="34.39" ry="18"/><text x="34.45" y="-101.3" font-family="Times,serif" font-size="14" text-anchor="middle">copy n</text></g><g class="edge"><path fill="none" stroke="#000" d="M125.57-177.72c-17.16 13.5-44 34.64-64.12 50.47"/><path stroke="#000" d="m64.04-124.05-10.03 3.44 5.7-8.94 4.33 5.5z"/><text x="99.45" y="-144.8" font-family="Times,serif" font-size="14" text-anchor="middle">S</text></g><g class="node"><ellipse cx="121.45" cy="-105" fill="none" stroke="#000" rx="34.39" ry="18"/><text x="121.45" y="-101.3" font-family="Times,serif" font-size="14" text-anchor="middle">slide n</text></g><g class="edge"><path fill="none" stroke="#000" d="M138.2-173.8c-2.85 11.52-6.66 26.94-9.93 40.17"/><path stroke="#000" d="m131.49-133.04-5.8 8.86-1-10.54 6.8 1.68z"/><text x="137.95" y="-144.8" font-family="Times,serif" font-size="14" text-anchor="middle">L</text></g><g class="node"><ellipse cx="200.45" cy="-105" fill="none" stroke="#000" rx="27" ry="18"/><text x="200.45" y="-101.3" font-family="Times,serif" font-size="14" text-anchor="middle">dup</text></g><g class="edge"><path fill="none" stroke="#000" d="M244.29-175.01c-7.84 12.35-18.85 29.66-27.87 43.86"/><path stroke="#000" d="m218.88-129.48-8.32 6.56 2.41-10.31 5.91 3.75z"/><text x="235.45" y="-144.8" font-family="Times,serif" font-size="14" text-anchor="middle">S</text></g><g class="node"><ellipse cx="274.45" cy="-105" fill="none" stroke="#000" rx="28.7" ry="18"/><text x="274.45" y="-101.3" font-family="Times,serif" font-size="14" text-anchor="middle">swap</text></g><g class="edge"><path fill="none" stroke="#000" d="M258.49-173.8c2.72 11.52 6.34 26.94 9.46 40.17"/><path stroke="#000" d="m271.52-134.71-1.11 10.53-5.7-8.93 6.81-1.6z"/><text x="270.95" y="-144.8" font-family="Times,serif" font-size="14" text-anchor="middle">T</text></g><g class="node"><ellipse cx="348.45" cy="-105" fill="none" stroke="#000" rx="27" ry="18"/><text x="348.45" y="-101.3" font-family="Times,serif" font-size="14" text-anchor="middle">drop</text></g><g class="edge"><path fill="none" stroke="#000" d="M269.97-176.96c14.97 13.53 37.82 34.19 55.01 49.74"/><path stroke="#000" d="m326.83-130.36 5.07 9.3-9.76-4.11 4.69-5.19z"/><text x="311.95" y="-144.8" font-family="Times,serif" font-size="14" text-anchor="middle">L</text></g><g class="node"><ellipse cx="492.45" cy="-192" fill="none" stroke="#000" rx="27" ry="18"/></g><g class="edge"><path fill="none" stroke="#000" d="M582.73-264.72c-17.41 13.83-44.89 35.66-64.96 51.6"/><path stroke="#000" d="m520.41-209.95-10.01 3.48 5.65-8.96 4.36 5.48z"/><text x="556.45" y="-231.8" font-family="Times,serif" font-size="14" text-anchor="middle">S</text></g><g class="node"><ellipse cx="599.45" cy="-192" fill="none" stroke="#000" rx="27" ry="18"/></g><g class="edge"><path fill="none" stroke="#000" d="M599.45-260.8v39.51"/><path stroke="#000" d="m602.95-221.47-3.5 10-3.5-10h7z"/><text x="603.95" y="-231.8" font-family="Times,serif" font-size="14" text-anchor="middle">T</text></g><g class="node"><ellipse cx="732.45" cy="-192" fill="none" stroke="#000" rx="27" ry="18"/></g><g class="edge"><path fill="none" stroke="#000" d="M618.5-265.82c22.42 14.33 59.85 38.25 85.66 54.74"/><path stroke="#000" d="m705.89-213.49 6.54 8.33-10.31-2.43 3.77-5.9z"/><text x="678.95" y="-231.8" font-family="Times,serif" font-size="14" text-anchor="middle">L</text></g><g class="node"><ellipse cx="420.45" cy="-105" fill="none" stroke="#000" rx="27" ry="18"/></g><g class="edge"><path fill="none" stroke="#000" d="M479.57-175.8c-10.95 12.93-26.86 31.71-39.42 46.54"/><path stroke="#000" d="m442.34-127.43-9.13 5.37 3.79-9.9 5.34 4.53z"/><text x="465.45" y="-144.8" font-family="Times,serif" font-size="14" text-anchor="middle">S</text></g><g class="node"><ellipse cx="492.45" cy="-105" fill="none" stroke="#000" rx="27" ry="18"/></g><g class="edge"><path fill="none" stroke="#000" d="M492.45-173.8v39.51"/><path stroke="#000" d="m495.95-134.47-3.5 10-3.5-10h7z"/><text x="496.95" y="-144.8" font-family="Times,serif" font-size="14" text-anchor="middle">T</text></g><g class="node"><ellipse cx="276.45" cy="-18" fill="none" stroke="#000" rx="27" ry="18"/><text x="276.45" y="-14.3" font-family="Times,serif" font-size="14" text-anchor="middle">add</text></g><g class="edge"><path fill="none" stroke="#000" d="M400.73-92.36c-24.67 14.56-67.1 39.61-95.42 56.32"/><path stroke="#000" d="m307.32-32.57-10.39 2.07 6.83-8.1 3.56 6.03z"/><text x="361.45" y="-57.8" font-family="Times,serif" font-size="14" text-anchor="middle">S</text></g><g class="node"><ellipse cx="348.45" cy="-18" fill="none" stroke="#000" rx="27" ry="18"/><text x="348.45" y="-14.3" font-family="Times,serif" font-size="14" text-anchor="middle">sub</text></g><g class="edge"><path fill="none" stroke="#000" d="M407.57-88.8c-10.95 12.93-26.86 31.71-39.42 46.54"/><path stroke="#000" d="m370.34-40.43-9.13 5.37 3.79-9.9 5.34 4.53z"/><text x="393.95" y="-57.8" font-family="Times,serif" font-size="14" text-anchor="middle">T</text></g><g class="node"><ellipse cx="420.45" cy="-18" fill="none" stroke="#000" rx="27" ry="18"/><text x="420.45" y="-14.3" font-family="Times,serif" font-size="14" text-anchor="middle">mul</text></g><g class="edge"><path fill="none" stroke="#000" d="M420.45-86.8v39.51"/><path stroke="#000" d="m423.95-47.47-3.5 10-3.5-10h7z"/><text x="424.95" y="-57.8" font-family="Times,serif" font-size="14" text-anchor="middle">L</text></g><g class="node"><ellipse cx="492.45" cy="-18" fill="none" stroke="#000" rx="27" ry="18"/><text x="492.45" y="-14.3" font-family="Times,serif" font-size="14" text-anchor="middle">div</text></g><g class="edge"><path fill="none" stroke="#000" d="M492.45-86.8v39.51"/><path stroke="#000" d="m495.95-47.47-3.5 10-3.5-10h7z"/><text x="496.45" y="-57.8" font-family="Times,serif" font-size="14" text-anchor="middle">S</text></g><g class="node"><ellipse cx="564.45" cy="-18" fill="none" stroke="#000" rx="27" ry="18"/><text x="564.45" y="-14.3" font-family="Times,serif" font-size="14" text-anchor="middle">mod</text></g><g class="edge"><path fill="none" stroke="#000" d="M505.32-88.8c10.95 12.93 26.87 31.71 39.42 46.54"/><path stroke="#000" d="m547.89-44.96 3.8 9.9-9.14-5.37 5.34-4.53z"/><text x="537.95" y="-57.8" font-family="Times,serif" font-size="14" text-anchor="middle">T</text></g><g class="node"><ellipse cx="565.45" cy="-105" fill="none" stroke="#000" rx="27.9" ry="18"/><text x="565.45" y="-101.3" font-family="Times,serif" font-size="14" text-anchor="middle">store</text></g><g class="edge"><path fill="none" stroke="#000" d="M592.73-174.21c-4.7 11.76-11.09 27.73-16.5 41.25"/><path stroke="#000" d="m579.11-131.74-6.96 7.98.46-10.58 6.5 2.6z"/><text x="589.45" y="-144.8" font-family="Times,serif" font-size="14" text-anchor="middle">S</text></g><g class="node"><ellipse cx="649.45" cy="-105" fill="none" stroke="#000" rx="37.89" ry="18"/><text x="649.45" y="-101.3" font-family="Times,serif" font-size="14" text-anchor="middle">retrieve</text></g><g class="edge"><path fill="none" stroke="#000" d="M608.85-175.01c7.13 12.11 17.07 29.01 25.33 43.05"/><path stroke="#000" d="m637.52-134.18 2.05 10.39-8.09-6.84 6.04-3.55z"/><text x="631.95" y="-144.8" font-family="Times,serif" font-size="14" text-anchor="middle">T</text></g><g class="node"><ellipse cx="732.45" cy="-105" fill="none" stroke="#000" rx="27" ry="18"/></g><g class="edge"><path fill="none" stroke="#000" d="M732.45-173.8v39.51"/><path stroke="#000" d="m735.95-134.47-3.5 10-3.5-10h7z"/><text x="736.45" y="-144.8" font-family="Times,serif" font-size="14" text-anchor="middle">S</text></g><g class="node"><ellipse cx="807.45" cy="-105" fill="none" stroke="#000" rx="27" ry="18"/></g><g class="edge"><path fill="none" stroke="#000" d="M745.51-176.19c11.54 13.08 28.56 32.36 41.84 47.41"/><path stroke="#000" d="m789.29-131.74 3.99 9.82-9.24-5.18 5.25-4.64z"/><text x="778.95" y="-144.8" font-family="Times,serif" font-size="14" text-anchor="middle">T</text></g><g class="node"><ellipse cx="651.45" cy="-18" fill="none" stroke="#000" rx="31.4" ry="18"/><text x="651.45" y="-14.3" font-family="Times,serif" font-size="14" text-anchor="middle">printc</text></g><g class="edge"><path fill="none" stroke="#000" d="M718.34-89.19c-12.39 13-30.62 32.13-44.92 47.13"/><path stroke="#000" d="m676.37-40.03-9.43 4.82 4.36-9.65 5.07 4.83z"/><text x="701.45" y="-57.8" font-family="Times,serif" font-size="14" text-anchor="middle">S</text></g><g class="node"><ellipse cx="730.45" cy="-18" fill="none" stroke="#000" rx="29.8" ry="18"/><text x="730.45" y="-14.3" font-family="Times,serif" font-size="14" text-anchor="middle">printi</text></g><g class="edge"><path fill="none" stroke="#000" d="M732.04-86.8c-.26 11.33-.62 26.44-.93 39.51"/><path stroke="#000" d="m734.59-47.38-3.73 9.91-3.27-10.08 7 .17z"/><text x="736.95" y="-57.8" font-family="Times,serif" font-size="14" text-anchor="middle">T</text></g><g class="node"><ellipse cx="808.45" cy="-18" fill="none" stroke="#000" rx="29.8" ry="18"/><text x="808.45" y="-14.3" font-family="Times,serif" font-size="14" text-anchor="middle">readc</text></g><g class="edge"><path fill="none" stroke="#000" d="M807.65-86.8c.13 11.33.31 26.44.46 39.51"/><path stroke="#000" d="m811.62-47.51-3.38 10.04-3.62-9.96 7-.08z"/><text x="812.45" y="-57.8" font-family="Times,serif" font-size="14" text-anchor="middle">S</text></g><g class="node"><ellipse cx="884.45" cy="-18" fill="none" stroke="#000" rx="28.7" ry="18"/><text x="884.45" y="-14.3" font-family="Times,serif" font-size="14" text-anchor="middle">readi</text></g><g class="edge"><path fill="none" stroke="#000" d="M820.86-89.19c11.78 13 29.11 32.13 42.7 47.13"/><path stroke="#000" d="m865.55-44.97 4.12 9.76-9.31-5.06 5.19-4.7z"/><text x="855.95" y="-57.8" font-family="Times,serif" font-size="14" text-anchor="middle">T</text></g><g class="node"><ellipse cx="993.45" cy="-192" fill="none" stroke="#000" rx="27" ry="18"/></g><g class="edge"><path fill="none" stroke="#000" d="M1057.86-263.19c-12.01 13.08-29.7 32.36-43.51 47.41"/><path stroke="#000" d="m1017.48-213.92-9.34 5 4.18-9.74 5.16 4.74z"/><text x="1041.45" y="-231.8" font-family="Times,serif" font-size="14" text-anchor="middle">S</text></g><g class="node"><ellipse cx="1150.45" cy="-192" fill="none" stroke="#000" rx="27" ry="18"/></g><g class="edge"><path fill="none" stroke="#000" d="M1085.21-263.19c12.16 13.08 30.08 32.36 44.07 47.41"/><path stroke="#000" d="m1131.33-218.63 4.25 9.71-9.37-4.94 5.12-4.77z"/><text x="1120.95" y="-231.8" font-family="Times,serif" font-size="14" text-anchor="middle">T</text></g><g class="node"><ellipse cx="1301.45" cy="-192" fill="none" stroke="#000" rx="27" ry="18"/></g><g class="edge"><path fill="none" stroke="#000" d="M1094.77-269.38c40.98 15.14 126.05 46.58 173.27 64.03"/><path stroke="#000" d="m1268.9-208.39 8.17 6.75-10.6-.18 2.43-6.57z"/><text x="1204.95" y="-231.8" font-family="Times,serif" font-size="14" text-anchor="middle">L</text></g><g class="node"><ellipse cx="884.45" cy="-105" fill="none" stroke="#000" rx="32.49" ry="18"/><text x="884.45" y="-101.3" font-family="Times,serif" font-size="14" text-anchor="middle">label l</text></g><g class="edge"><path fill="none" stroke="#000" d="M976.42-177.72c-17.42 13.59-44.74 34.89-65.09 50.75"/><path stroke="#000" d="m913.85-123.71-10.04 3.39 5.74-8.91 4.3 5.52z"/><text x="950.45" y="-144.8" font-family="Times,serif" font-size="14" text-anchor="middle">S</text></g><g class="node"><ellipse cx="963.45" cy="-105" fill="none" stroke="#000" rx="28.7" ry="18"/><text x="963.45" y="-101.3" font-family="Times,serif" font-size="14" text-anchor="middle">call l</text></g><g class="edge"><path fill="none" stroke="#000" d="M987.52-174.21c-4.12 11.69-9.71 27.52-14.47 40.99"/><path stroke="#000" d="m976.09-132.31-6.63 8.26.03-10.59 6.6 2.33z"/><text x="984.95" y="-144.8" font-family="Times,serif" font-size="14" text-anchor="middle">T</text></g><g class="node"><ellipse cx="1039.45" cy="-105" fill="none" stroke="#000" rx="29.8" ry="18"/><text x="1039.45" y="-101.3" font-family="Times,serif" font-size="14" text-anchor="middle">jmp l</text></g><g class="edge"><path fill="none" stroke="#000" d="M1002.32-174.61c6.51 12.03 15.49 28.63 22.99 42.48"/><path stroke="#000" d="m1028.77-134.09 1.68 10.46-7.84-7.13 6.16-3.33z"/><text x="1023.95" y="-144.8" font-family="Times,serif" font-size="14" text-anchor="middle">L</text></g><g class="node"><ellipse cx="1114.45" cy="-105" fill="none" stroke="#000" rx="27" ry="18"/><text x="1114.45" y="-101.3" font-family="Times,serif" font-size="14" text-anchor="middle">jz l</text></g><g class="edge"><path fill="none" stroke="#000" d="M1143.33-174.21c-5.02 11.88-11.87 28.04-17.64 41.65"/><path stroke="#000" d="m1128.67-131.6-7.13 7.84.68-10.57 6.45 2.73z"/><text x="1139.45" y="-144.8" font-family="Times,serif" font-size="14" text-anchor="middle">S</text></g><g class="node"><ellipse cx="1186.45" cy="-105" fill="none" stroke="#000" rx="27" ry="18"/><text x="1186.45" y="-101.3" font-family="Times,serif" font-size="14" text-anchor="middle">jn l</text></g><g class="edge"><path fill="none" stroke="#000" d="M1157.56-174.21c5.03 11.88 11.87 28.04 17.64 41.65"/><path stroke="#000" d="m1178.67-134.33.68 10.57-7.12-7.84 6.44-2.73z"/><text x="1175.95" y="-144.8" font-family="Times,serif" font-size="14" text-anchor="middle">T</text></g><g class="node"><ellipse cx="1258.45" cy="-105" fill="none" stroke="#000" rx="27" ry="18"/><text x="1258.45" y="-101.3" font-family="Times,serif" font-size="14" text-anchor="middle">ret</text></g><g class="edge"><path fill="none" stroke="#000" d="M1167.32-177.72c17.57 13.83 45.31 35.66 65.57 51.6"/><path stroke="#000" d="m1234.64-128.4 5.69 8.93-10.02-3.43 4.33-5.5z"/><text x="1215.95" y="-144.8" font-family="Times,serif" font-size="14" text-anchor="middle">L</text></g><g class="node"><ellipse cx="1330.45" cy="-105" fill="none" stroke="#000" rx="27" ry="18"/><text x="1330.45" y="-101.3" font-family="Times,serif" font-size="14" text-anchor="middle">end</text></g><g class="edge"><path fill="none" stroke="#000" d="M1307.18-174.21c3.98 11.69 9.38 27.52 13.98 40.99"/><path stroke="#000" d="m1324.71-134.64-.08 10.59-6.54-8.33 6.62-2.26z"/><text x="1322.95" y="-144.8" font-family="Times,serif" font-size="14" text-anchor="middle">L</text></g></g></svg>